# xmcd CD database file
#
# Track frame offsets:
#	150
#	17910
#	35995
#	52460
#	67977
#	82110
#	101125
#	120587
#	137425
#	154712
#	172975
#	189657
#	207675
#	221365
#
# Disc length: 3197 seconds
#
# Revision: 0
# Processed by: cddbd v1.5.1PL2 Copyright (c) Steve Scherf et al.
# Submitted via: CDex 1.51
#
DISCID=d30c7b0e
DTITLE=Markku Johansson - Tenderly
DYEAR=1990
DGENRE=Jazz
TTITLE0=Tenderly
TTITLE1=What a Wonderful World
TTITLE2=Can You Read My Mind
TTITLE3=Sweet As You
TTITLE4=Without You
TTITLE5=Autumn Nocturne
TTITLE6=Cry Me a River
TTITLE7=When I Fall in Love
TTITLE8=La Rosita
TTITLE9=Spanish Dream
TTITLE10=A Woman in Love
TTITLE11=Roses and Memories
TTITLE12=I Fall in Love Too Easily
TTITLE13=The Summer Knows
EXTD=YEAR: 1990
EXTT0=
EXTT1=
EXTT2=
EXTT3=
EXTT4=
EXTT5=
EXTT6=
EXTT7=
EXTT8=
EXTT9=
EXTT10=
EXTT11=
EXTT12=
EXTT13=
PLAYORDER=
